<svg width="1358" height="254" viewBox="0 0 1358 254" fill="none" xmlns="http://www.w3.org/2000/svg">
<path d="M139.112 94.116C139.112 113.393 124.16 126.244 100.312 126.244L67.7581 126.244L67.7581 61.7991L99.9337 61.7991C123.971 61.7991 139.112 72.5714 139.112 93.5491L139.112 94.116ZM206.492 91.0922L206.492 90.3363C206.492 36.6637 166.745 4.91364 105.233 4.91364L6.32046e-05 4.91363L5.25314e-05 249.086L67.7581 249.086L67.7581 179.35L101.637 179.35C162.203 179.35 206.492 148.923 206.492 91.0922ZM237.532 249.086L304.533 249.086L304.533 115.094L304.533 4.91365L237.532 4.91364L237.532 249.086ZM468.25 254C512.917 254 548.5 237.558 574.429 216.013L574.429 102.621L472.035 102.621L472.035 151.568L510.078 151.568L510.078 185.775C500.236 192.39 487.744 195.981 470.9 195.981C432.1 195.981 404.466 167.821 404.466 127.945L404.466 127C404.466 89.7693 431.721 60.2872 466.925 60.2872C485.284 60.2872 499.479 65.0119 512.728 73.5164L550.014 23.2455C527.869 8.31544 501.372 -3.74444e-05 466.925 -3.89501e-05C391.407 -4.22511e-05 335.573 55.7515 335.573 127L335.573 127.756C335.573 201.65 392.164 254 468.25 254ZM610.58 249.086L808.933 249.086L808.933 191.445L677.58 191.445L677.58 152.702L794.927 152.702L794.927 99.4077L677.581 99.4077L677.581 62.1771L807.229 62.1771L807.229 4.91367L610.58 4.91366L610.58 249.086ZM1025.08 127.567C1025.08 162.719 1000.28 192.768 963.186 192.768C925.9 192.768 900.349 162.152 900.349 126.811L900.349 126.244C900.349 91.0923 925.143 61.0432 962.429 61.0432C999.715 61.0432 1024.89 91.4702 1024.89 127L1024.89 127.567L1025.08 127.567ZM1094.73 127L1094.73 126.244C1094.73 56.1295 1038.7 -1.39569e-05 963.376 -1.72496e-05C887.858 -2.05506e-05 831.266 56.8854 831.266 127L831.266 127.756C831.266 197.871 887.101 254 962.619 254C1038.14 254 1094.73 197.115 1094.73 127ZM1358 249.086L1358 4.91369L1291 4.91369L1291 133.993L1190.31 4.91368L1127.09 4.91368L1127.09 249.086L1194.09 249.086L1194.09 115.094L1298.95 249.086L1358 249.086Z" fill="#000000"/>
</svg>
